<?xml version="1.0" ?><!DOCTYPE svg  PUBLIC '-//W3C//DTD SVG 1.1//EN'  'http://www.w3.org/Graphics/SVG/1.1/DTD/svg11.dtd'><svg height="100%" fill="#d93b49" style="fill-rule:evenodd;clip-rule:evenodd;stroke-linejoin:round;stroke-miterlimit:2;" version="1.1" viewBox="0 0 32 32" width="100%" xml:space="preserve" xmlns="http://www.w3.org/2000/svg" xmlns:serif="http://www.serif.com/" xmlns:xlink="http://www.w3.org/1999/xlink"><path d="M12.98,5.593c-0.571,0.212 -0.979,0.762 -0.979,1.407l0,0.006c0,0.652 0.417,1.208 0.999,1.414l0,3.58l-0.501,0c-0.828,0 -1.499,0.671 -1.499,1.499l0,0.011c0,0.827 0.67,1.498 1.496,1.499l-0.907,9.99l-0.589,-0c-0.398,-0 -0.779,0.158 -1.061,0.439c-0.281,0.281 -0.439,0.663 -0.439,1.061l0,0.501l-1,-0c-0.828,0 -1.5,0.672 -1.5,1.5c-0,0.514 -0,1 -0,1c-0,0.276 0.224,0.5 0.5,0.5l17,-0c0.276,-0 0.5,-0.224 0.5,-0.5l-0,-1c0,-0.828 -0.672,-1.5 -1.5,-1.5l-1,-0l-0,-0.501c0,-0.398 -0.158,-0.78 -0.439,-1.061c-0.282,-0.281 -0.663,-0.439 -1.061,-0.439l-0.589,-0l-0.909,-9.99l0.023,0c0.398,0 0.779,-0.158 1.06,-0.439c0.282,-0.281 0.44,-0.663 0.44,-1.061l-0,-0.009c-0,-0.398 -0.158,-0.779 -0.44,-1.06c-0.281,-0.282 -0.662,-0.44 -1.06,-0.44l-0.525,0l-0,-3.578c0.584,-0.205 1.003,-0.762 1.003,-1.416l0,-0.006c0,-0.653 -0.417,-1.209 -1,-1.415l0,0c0,-1.971 -1.377,-3.572 -3.012,-3.572c-1.634,0 -3.011,1.609 -3.011,3.58l-0,0Zm11.02,22.907l-0,0.5c0,0 -16,0 -16,0c-0,0 -0,-0.5 -0,-0.5c-0,-0.276 0.224,-0.5 0.5,-0.5c0,-0 15,-0 15,-0c0.276,0 0.5,0.224 0.5,0.5Zm-3,-2.501l-10,-0c-0.133,-0 -0.26,0.052 -0.354,0.146c-0.093,0.094 -0.146,0.221 -0.146,0.354l0,0.501l11,-0l0,-0.501c0,-0.133 -0.053,-0.26 -0.146,-0.354c-0.094,-0.094 -0.221,-0.146 -0.354,-0.146Zm-1.776,-3.007c-0.252,0.182 -0.545,0.379 -0.862,0.58c-0.755,0.479 -1.648,0.997 -2.41,1.427l3.455,-0l-0.183,-2.007Zm-0.245,-2.697c-0.359,0.268 -0.812,0.57 -1.314,0.883c-1.867,1.164 -4.427,2.521 -4.981,2.812l-0.091,1.009l1.285,-0c0.492,-0.264 2.486,-1.343 3.948,-2.271c0.553,-0.352 1.03,-0.673 1.291,-0.913l-0.138,-1.52Zm-0.255,-2.8c-0.32,0.23 -0.706,0.484 -1.129,0.746c-1.678,1.037 -3.946,2.238 -4.624,2.593l-0.179,1.967c0.994,-0.532 2.884,-1.561 4.344,-2.472c0.785,-0.489 1.445,-0.932 1.734,-1.237l-0.146,-1.597Zm-1.339,-2.486c-0.184,0.222 -0.661,0.578 -1.252,0.952c-1.019,0.648 -2.384,1.393 -2.869,1.655l-0.185,2.03c0.968,-0.515 2.665,-1.437 3.99,-2.256c0.67,-0.414 1.244,-0.792 1.548,-1.072l-0.115,-1.267c-0.001,-0.014 -0.002,-0.028 -0.002,-0.042l-1.115,0Zm-3.885,0l-0.127,1.408c0.62,-0.343 1.509,-0.846 2.224,-1.3c0.058,-0.036 0.114,-0.072 0.169,-0.108l-2.266,0Zm-1.001,-2.009l0,0c-0.275,0 -0.499,0.224 -0.499,0.499c0,0 0,0.011 0,0.011c0,0.276 0.224,0.499 0.499,0.499l7.026,0c0.132,0 0.26,-0.052 0.353,-0.146c0.094,-0.094 0.147,-0.221 0.147,-0.354c-0,0 -0,-0.009 -0,-0.009c-0,-0.132 -0.053,-0.26 -0.147,-0.353c-0.093,-0.094 -0.221,-0.147 -0.353,-0.147l-7.026,0Zm8.803,-1.041l3.5,1.51c0.253,0.109 0.548,-0.008 0.657,-0.261c0.109,-0.253 -0.008,-0.548 -0.261,-0.657l-3.5,-1.51c-0.253,-0.109 -0.548,0.008 -0.657,0.261c-0.109,0.253 0.008,0.548 0.261,0.657Zm-11,-0.919l-3.5,1.51c-0.253,0.109 -0.37,0.403 -0.261,0.657c0.109,0.253 0.404,0.37 0.657,0.261l3.5,-1.51c0.253,-0.11 0.37,-0.404 0.261,-0.657c-0.109,-0.254 -0.404,-0.371 -0.657,-0.261Zm7.184,0.96l0.514,0l-0,-3.488l-4,-0c0,-0 0,3.488 -0,3.488l0.514,0c0.059,-1.063 0.3,-1.957 0.607,-2.435c0.252,-0.394 0.575,-0.565 0.879,-0.565c0.305,-0 0.627,0.171 0.88,0.565c0.307,0.478 0.548,1.372 0.606,2.435Zm-1,0c-0.041,-0.7 -0.166,-1.309 -0.351,-1.714c-0.035,-0.077 -0.091,-0.161 -0.135,-0.22c-0.043,0.059 -0.1,0.143 -0.135,0.22c-0.184,0.405 -0.309,1.014 -0.35,1.714l0.971,0Zm5.211,-3.039l3.5,-1.5c0.254,-0.109 0.371,-0.403 0.263,-0.657c-0.109,-0.253 -0.403,-0.371 -0.657,-0.262l-3.5,1.5c-0.254,0.108 -0.371,0.403 -0.263,0.656c0.109,0.254 0.403,0.372 0.657,0.263Zm-11,-0.921l-3.5,-1.5c-0.254,-0.108 -0.548,0.009 -0.657,0.263c-0.108,0.254 0.009,0.548 0.263,0.657l3.5,1.5c0.254,0.108 0.548,-0.009 0.657,-0.263c0.108,-0.254 -0.009,-0.548 -0.263,-0.657Zm8.306,-1.04l0,0.006c0,0.276 -0.224,0.5 -0.5,0.5l-5.002,-0c-0.276,-0 -0.5,-0.224 -0.5,-0.5c0,-0 0,-0.006 0,-0.006c0,-0.276 0.224,-0.5 0.5,-0.5l5.002,0c0.276,-0 0.5,0.224 0.5,0.5Zm-1,-1.5c-0.018,-1.354 -0.885,-2.487 -2.012,-2.487c-1.126,0 -1.993,1.133 -2.011,2.487l4.023,0Z" id="Light-house"/></svg>